<svg width="178" height="136" xmlns="http://www.w3.org/2000/svg" xmlns:xlink="http://www.w3.org/1999/xlink" overflow="hidden"><defs><clipPath id="clip0"><rect x="261" y="210" width="178" height="136"/></clipPath></defs><g clip-path="url(#clip0)" transform="translate(-261 -210)"><path d="M266 288.5C266 282.701 270.701 278 276.5 278L423.5 278C429.299 278 434 282.701 434 288.5L434 330.5C434 336.299 429.299 341 423.5 341L276.5 341C270.701 341 266 336.299 266 330.5Z" stroke="#F2F2F2" stroke-width="8" stroke-miterlimit="8" fill="none" fill-rule="evenodd"/><rect x="286" y="250" width="128" height="80" fill="#FFFFFF"/><rect x="311" y="270" width="78" height="56" fill="#FFFFFF"/><path d="M286 255.676 318.33 255.676 318.33 215 381.67 215 381.67 255.676 414 255.676 350 322Z" stroke="#F2F2F2" stroke-width="8" stroke-miterlimit="8" fill="none" fill-rule="evenodd"/></g></svg>