<svg width="178" height="141" xmlns="http://www.w3.org/2000/svg" xmlns:xlink="http://www.w3.org/1999/xlink" overflow="hidden"><defs><clipPath id="clip0"><rect x="261" y="205" width="178" height="141"/></clipPath></defs><g clip-path="url(#clip0)" transform="translate(-261 -205)"><path d="M266 288.5C266 282.701 270.701 278 276.5 278L423.5 278C429.299 278 434 282.701 434 288.5L434 330.5C434 336.299 429.299 341 423.5 341L276.5 341C270.701 341 266 336.299 266 330.5Z" stroke="#000000" stroke-width="8" stroke-miterlimit="8" fill="none" fill-rule="evenodd"/><rect x="296" y="297" width="107" height="33" fill="#FFFFFF"/><rect x="311" y="270" width="78" height="56" fill="#FFFFFF"/><path d="M414 243.042 381.67 243.042 381.67 306 318.33 306 318.33 243.042 286 243.042 350 210Z" stroke="#000000" stroke-width="8" stroke-miterlimit="8" fill="none" fill-rule="evenodd"/></g></svg>